<svg width="352" height="304" viewBox="0 0 352 304" fill="none" xmlns="http://www.w3.org/2000/svg">
  <mask id="mask0_12_155853" style="mask-type:alpha" maskUnits="userSpaceOnUse" x="0" y="0"
    width="352" height="304">
    <rect x="352" y="304" width="352" height="304" transform="rotate(180 352 304)" fill="#D9D9D9" />
  </mask>
  <g mask="url(#mask0_12_155853)">
    <g filter="url(#filter0_f_12_155853)">
      <path
        d="M253.413 -4.85832C231.052 -15.1471 221.316 -41.5056 231.667 -63.7318C242.019 -85.958 268.537 -95.6351 290.898 -85.3464C313.259 -75.0576 322.995 -48.6991 312.643 -26.4729C302.292 -4.24673 275.774 5.43045 253.413 -4.85832Z"
        fill="#00F4E2" />
      <path
        d="M368.162 -19.768C339.336 -33.0318 326.785 -67.0121 340.129 -95.6651C353.473 -124.318 387.659 -136.794 416.486 -123.53C445.313 -110.266 457.864 -76.2855 444.52 -47.6325C431.175 -18.9795 396.989 -6.50415 368.162 -19.768Z"
        fill="#00F4E2" />
      <path
        d="M308.713 -37.1127C275.846 -52.2359 261.535 -90.9798 276.75 -123.65C291.965 -156.319 330.944 -170.544 363.812 -155.42C396.679 -140.297 410.99 -101.553 395.775 -68.8835C380.56 -36.2137 341.581 -21.9894 308.713 -37.1127Z"
        fill="#00F4E2" />
      <path
        d="M314.838 -53.7361C314.528 -81.5201 336.936 -104.294 364.889 -104.602C392.841 -104.911 415.752 -82.6374 416.063 -54.8535C416.373 -27.0695 393.965 -4.29601 366.013 -3.98746C338.06 -3.67891 315.149 -25.9521 314.838 -53.7361Z"
        fill="#00F4E2" />
      <path
        d="M386.196 55.8023C385.796 19.9844 414.684 -9.3742 450.719 -9.77197C486.754 -10.1697 516.29 18.5439 516.691 54.3618C517.091 90.1797 488.203 119.538 452.168 119.936C416.133 120.334 386.596 91.6202 386.196 55.8023Z"
        fill="#00F4E2" />
      <path
        d="M375.058 -13.1801C374.602 -54.0192 407.539 -87.4935 448.626 -87.947C489.712 -88.4005 523.39 -55.6616 523.846 -14.8225C524.302 26.0166 491.365 59.4909 450.278 59.9444C409.191 60.398 375.514 27.659 375.058 -13.1801Z"
        fill="#00F4E2" />
    </g>
  </g>
  <defs>
    <filter id="filter0_f_12_155853" x="65.3789" y="-322" width="666.684" height="630.247"
      filterUnits="userSpaceOnUse" color-interpolation-filters="sRGB">
      <feFlood flood-opacity="0" result="BackgroundImageFix" />
      <feBlend mode="normal" in="SourceGraphic" in2="BackgroundImageFix" result="shape" />
      <feGaussianBlur stdDeviation="80" result="effect1_foregroundBlur_12_155853" />
    </filter>
  </defs>
</svg>
  